<?xml version="1.0" encoding="utf-8"?>
<!-- Generator: Adobe Illustrator 22.0.1, SVG Export Plug-In . SVG Version: 6.00 Build 0)  -->
<svg version="1.1" id="Layer_1" xmlns="http://www.w3.org/2000/svg" xmlns:xlink="http://www.w3.org/1999/xlink" x="0px" y="0px"
	 viewBox="0 0 900 900" style="enable-background:new 0 0 900 900;" xml:space="preserve">
<style type="text/css">
	.st0{clip-path:url(#SVGID_2_);fill:url(#SVGID_3_);}
	.st1{fill:#FFFFFF;}
	.st2{font-family:'Lato-Bold';}
	.st3{font-size:213.8028px;}
	.st4{font-size:166.4228px;}
	.st5{font-size:136.8041px;}
</style>
<g>
	<g>
		<defs>
			<path id="SVGID_1_" d="M450,8.6c-168.7,0-305.5,136.8-305.5,305.5c0,67.4,21.8,129.7,58.8,180.2L450,892.2l246.7-397.9
				c37-50.5,58.8-112.8,58.8-180.2C755.5,145.4,618.7,8.6,450,8.6z M450,550.7c-141.1,0-255.5-114.4-255.5-255.5
				S308.9,39.6,450,39.6S705.5,154,705.5,295.1S591.1,550.7,450,550.7z"/>
		</defs>
		<clipPath id="SVGID_2_">
			<use xlink:href="#SVGID_1_"  style="overflow:visible;"/>
		</clipPath>
		<linearGradient id="SVGID_3_" gradientUnits="userSpaceOnUse" x1="-154.374" y1="450.3973" x2="1054.374" y2="450.3973">
			<stop  offset="0" style="stop-color:#0071BC"/>
			<stop  offset="1" style="stop-color:#000000"/>
		</linearGradient>
		<circle class="st0" cx="450" cy="450.4" r="604.4"/>
	</g>
	<g>
		<text transform="matrix(1 0 0 1 486.7404 299.5425)" class="st1 st2 st3">Z</text>
		<text transform="matrix(1 0 0 1 369.8268 346.8813)" class="st1 st2 st4">Z</text>
		<text transform="matrix(1 0 0 1 255.6969 410.2476)" class="st1 st2 st5">Z</text>
	</g>
</g>
</svg>
