<svg xmlns="http://www.w3.org/2000/svg" xmlns:xlink="http://www.w3.org/1999/xlink" viewBox="0 0 858.56 858.56"><defs><style>.cls-1{fill:url(#linear-gradient);}.cls-2,.cls-3,.cls-4,.cls-5{fill:#fff;}.cls-3{font-size:151.86px;}.cls-3,.cls-4,.cls-5{font-family:Lato-Bold, Lato;font-weight:700;}.cls-4{font-size:118.21px;}.cls-5{font-size:97.17px;}</style><linearGradient id="linear-gradient" y1="429.28" x2="858.56" y2="429.28" gradientUnits="userSpaceOnUse"><stop offset="0" stop-color="#0071bc"/><stop offset="1"/></linearGradient></defs><title>sleepez-no-ring</title><g id="Layer_1" data-name="Layer 1"><circle class="cls-1" cx="429.28" cy="429.28" r="429.28"/><path class="cls-2" d="M450,131.19c-119.83,0-217,97.15-217,217a216,216,0,0,0,41.75,128L450,758.77,625.22,476.14a216,216,0,0,0,41.75-128C667,228.34,569.83,131.19,450,131.19Zm0,385a181.5,181.5,0,1,1,181.5-181.5A181.5,181.5,0,0,1,450,516.19Z" transform="translate(-20.72 -15.71)"/></g><g id="Layer_2" data-name="Layer 2"><text class="cls-3" transform="translate(455.37 322.12)">Z</text><text class="cls-4" transform="translate(372.34 355.75)">Z</text><text class="cls-5" transform="translate(291.28 400.76)">Z</text></g></svg>