<?xml version="1.0" encoding="utf-8"?>
<!-- Generator: Adobe Illustrator 22.0.1, SVG Export Plug-In . SVG Version: 6.00 Build 0)  -->
<svg version="1.1" id="Layer_1" xmlns:sketch="http://www.bohemiancoding.com/sketch/ns"
	 xmlns="http://www.w3.org/2000/svg" xmlns:xlink="http://www.w3.org/1999/xlink" x="0px" y="0px" viewBox="0 0 48 48"
	 style="enable-background:new 0 0 48 48;" xml:space="preserve">
<style type="text/css">
	.st0{clip-path:url(#SVGID_2_);fill:url(#SVGID_3_);}
	.st1{fill:#333333;}
	.st2{font-family:'Lato-Bold';}
	.st3{font-size:5.775px;}
	.st4{font-size:4.4952px;}
	.st5{font-size:3.6952px;}
</style>
<title>Arrow_1</title>
<desc>Created with Sketch.</desc>
<g>
	<g>
		<defs>
			<path id="SVGID_1_" d="M24,12.1c-4.6,0-8.3,3.7-8.3,8.3c0,1.8,0.6,3.5,1.6,4.9L24,35.9l6.7-10.7c1-1.4,1.6-3,1.6-4.9
				C32.3,15.8,28.6,12.1,24,12.1z M24,26.7c-3.8,0-6.9-3.1-6.9-6.9s3.1-6.9,6.9-6.9s6.9,3.1,6.9,6.9S27.8,26.7,24,26.7z"/>
		</defs>
		<clipPath id="SVGID_2_">
			<use xlink:href="#SVGID_1_"  style="overflow:visible;"/>
		</clipPath>
		<linearGradient id="SVGID_3_" gradientUnits="userSpaceOnUse" x1="7.6754" y1="24" x2="40.3246" y2="24">
			<stop  offset="0" style="stop-color:#0071BC"/>
			<stop  offset="1" style="stop-color:#000000"/>
		</linearGradient>
		<circle class="st0" cx="24" cy="24" r="16.3"/>
	</g>
	<g>
		<text transform="matrix(1 0 0 1 24.9924 19.9246)" class="st1 st2 st3">Z</text>
		<text transform="matrix(1 0 0 1 21.8342 21.2043)" class="st1 st2 st4">Z</text>
		<text transform="matrix(1 0 0 1 18.7521 22.9153)" class="st1 st2 st5">Z</text>
	</g>
</g>
</svg>
