<svg xmlns="http://www.w3.org/2000/svg" xmlns:xlink="http://www.w3.org/1999/xlink" viewBox="0 0 878.56 878.56"><defs><style>.cls-1{stroke:#fff;stroke-miterlimit:10;stroke-width:20px;fill:url(#linear-gradient);}.cls-2,.cls-3,.cls-4,.cls-5{fill:#fff;}.cls-3{font-size:151.86px;}.cls-3,.cls-4,.cls-5{font-family:Lato-Bold, Lato;font-weight:700;}.cls-4{font-size:118.21px;}.cls-5{font-size:97.17px;}</style><linearGradient id="linear-gradient" x1="10" y1="439.28" x2="868.56" y2="439.28" gradientUnits="userSpaceOnUse"><stop offset="0" stop-color="#0071bc"/><stop offset="1"/></linearGradient></defs><title>sleepez</title><g id="Layer_1" data-name="Layer 1"><circle class="cls-1" cx="439.28" cy="439.28" r="429.28"/><path class="cls-2" d="M450,131.19c-119.83,0-217,97.15-217,217a216,216,0,0,0,41.75,128L450,758.77,625.22,476.14a216,216,0,0,0,41.75-128C667,228.34,569.83,131.19,450,131.19Zm0,385a181.5,181.5,0,1,1,181.5-181.5A181.5,181.5,0,0,1,450,516.19Z" transform="translate(-10.72 -5.71)"/></g><g id="Layer_2" data-name="Layer 2"><text class="cls-3" transform="translate(465.37 332.12)">Z</text><text class="cls-4" transform="translate(382.34 365.75)">Z</text><text class="cls-5" transform="translate(301.28 410.76)">Z</text></g></svg>